<?xml version="1.0" encoding="UTF-8" standalone="no"?>
<!-- Created with Inkscape (http://www.inkscape.org/) -->

<svg
   width="210mm"
   height="297mm"
   viewBox="0 0 210 297"
   version="1.1"
   id="svg5"
   inkscape:version="1.1.1 (3bf5ae0d25, 2021-09-20)"
   sodipodi:docname="logo.svg"
   xmlns:inkscape="http://www.inkscape.org/namespaces/inkscape"
   xmlns:sodipodi="http://sodipodi.sourceforge.net/DTD/sodipodi-0.dtd"
   xmlns="http://www.w3.org/2000/svg"
   xmlns:svg="http://www.w3.org/2000/svg">
  <sodipodi:namedview
     id="namedview7"
     pagecolor="#ffffff"
     bordercolor="#666666"
     borderopacity="1.0"
     inkscape:pageshadow="2"
     inkscape:pageopacity="0.0"
     inkscape:pagecheckerboard="0"
     inkscape:document-units="mm"
     showgrid="false"
     inkscape:zoom="0.52347032"
     inkscape:cx="-106.97837"
     inkscape:cy="681.98709"
     inkscape:window-width="1920"
     inkscape:window-height="1012"
     inkscape:window-x="0"
     inkscape:window-y="32"
     inkscape:window-maximized="1"
     inkscape:current-layer="layer1" />
  <defs
     id="defs2" />
  <g
     inkscape:label="Layer 1"
     inkscape:groupmode="layer"
     id="layer1">
    <path
       id="rect99"
       style="fill:#1a1a1a;stroke-width:0.264583"
       d="m 27.041372,119.40413 22.975733,22.97574 -22.976098,22.9761 53.809549,53.80954 22.976094,-22.97609 22.9761,22.97609 53.80955,-53.80954 -22.9761,-22.9761 22.97573,-22.97573 L 126.80238,65.59459 103.82665,88.570321 80.850918,65.594588 Z m 14.534446,0.80829 40.083748,-40.083746 15.304366,15.304366 -16.113372,16.11337 -7.857724,7.85773 -16.112652,16.11265 z m -3.62e-4,44.33526 15.304733,-15.30473 16.113011,16.11301 7.857723,7.85773 16.113012,16.11301 -15.304732,15.30473 z m 22.167812,-22.16781 16.112651,-16.11265 16.113012,16.11301 -16.112652,16.11265 z m 23.970375,-23.97037 16.113377,-16.11338 16.11301,16.11301 -16.11338,16.11338 z m 22.976087,-22.976096 15.30437,-15.304363 40.08375,40.083749 -15.30437,15.30436 -16.11301,-16.11301 -7.85772,-7.85772 z m -22.975727,70.917206 16.112647,-16.11266 16.11302,16.11302 -16.11266,16.11265 z m 23.970377,-23.97038 16.11337,-16.11337 16.11301,16.11301 -16.11337,16.11337 z m -0.99465,46.94611 16.11265,-16.11265 7.85773,-7.85773 16.11337,-16.11337 15.30473,15.30473 -40.08374,40.08375 z" />
    <path
       id="path269"
       style="fill:#000000;stroke-width:0.264583;fill-opacity:0"
       d="m 65.777296,82.950784 v 64.985696 11.1125 64.9857 h 76.098194 v -64.9857 -11.1125 -64.985696 z m 9.705866,10.848948 H 132.17014 V 147.93648 H 75.483162 Z m 0,65.249248 h 56.686978 v 54.13675 H 75.483162 Z" />
  </g>
</svg>
